/* XPM */
static char * protimer_xpm[] = {
"32 32 471 2",
"  	c None",
". 	c #FFFFFF",
"+ 	c #FEFEFE",
"@ 	c #FFFEFF",
"# 	c #FDFDFD",
"$ 	c #BAB8B8",
"% 	c #575254",
"& 	c #140E0F",
"* 	c #0B0405",
"= 	c #0B0506",
"- 	c #0D0708",
"; 	c #464142",
"> 	c #9F9C9C",
", 	c #F8F8F8",
"' 	c #E5E4E4",
") 	c #332E2F",
"! 	c #2E2829",
"~ 	c #524C4E",
"{ 	c #554E51",
"] 	c #746E70",
"^ 	c #746F71",
"/ 	c #928D8F",
"( 	c #757072",
"_ 	c #575052",
": 	c #575153",
"< 	c #393335",
"[ 	c #221D1E",
"} 	c #B6B4B4",
"| 	c #555152",
"1 	c #4E4749",
"2 	c #5A5456",
"3 	c #797476",
"4 	c #B1AFB0",
"5 	c #D4D2D3",
"6 	c #999596",
"7 	c #797475",
"8 	c #8F898B",
"9 	c #A8A5A5",
"0 	c #CDCACB",
"a 	c #9F9B9C",
"b 	c #6F696B",
"c 	c #726C6E",
"d 	c #4E484A",
"e 	c #383233",
"f 	c #F2F1F1",
"g 	c #EDEDED",
"h 	c #292425",
"i 	c #494244",
"j 	c #A3A0A1",
"k 	c #787375",
"l 	c #9C9898",
"m 	c #736D6F",
"n 	c #534C4D",
"o 	c #585153",
"p 	c #686263",
"q 	c #7F7A7B",
"r 	c #534D4E",
"s 	c #6B6566",
"t 	c #837E7F",
"u 	c #716C6D",
"v 	c #C6C3C3",
"w 	c #585254",
"x 	c #191213",
"y 	c #BFBDBE",
"z 	c #171213",
"A 	c #5F585A",
"B 	c #B3B0B1",
"C 	c #51494B",
"D 	c #585052",
"E 	c #574E51",
"F 	c #575051",
"G 	c #585152",
"H 	c #554D4F",
"I 	c #AFABAC",
"J 	c #5A5354",
"K 	c #B8B5B6",
"L 	c #6B6466",
"M 	c #150D0F",
"N 	c #BAB9BA",
"O 	c #282324",
"P 	c #777173",
"Q 	c #514A4C",
"R 	c #50484A",
"S 	c #544C4E",
"T 	c #524B4D",
"U 	c #534C4E",
"V 	c #544D4F",
"W 	c #625B5D",
"X 	c #50494B",
"Y 	c #5D5658",
"Z 	c #5C5557",
"` 	c #150E10",
" .	c #E0E1E1",
"..	c #565152",
"+.	c #423B3D",
"@.	c #6A6466",
"#.	c #928E8F",
"$.	c #50484B",
"%.	c #50494C",
"&.	c #655F61",
"*.	c #A19E9E",
"=.	c #635D5F",
"-.	c #5B5456",
";.	c #2B2627",
">.	c #E4E3E4",
",.	c #5F5A5B",
"'.	c #6A6365",
").	c #6D6768",
"!.	c #4A4244",
"~.	c #4C4547",
"{.	c #4C4446",
"].	c #A19B9C",
"^.	c #4B4446",
"/.	c #4D4446",
"(.	c #635C5E",
"_.	c #8B8788",
":.	c #7B7779",
"<.	c #FDFEFE",
"[.	c #332E30",
"}.	c #3E3638",
"|.	c #8A8486",
"1.	c #ABA7A8",
"2.	c #483F41",
"3.	c #494144",
"4.	c #4A4143",
"5.	c #494143",
"6.	c #5E5759",
"7.	c #9D9899",
"8.	c #4A4144",
"9.	c #493F42",
"0.	c #A5A1A1",
"a.	c #918C8D",
"b.	c #443D3F",
"c.	c #1D1718",
"d.	c #FEFFFF",
"e.	c #FAFCFD",
"f.	c #F4F7F9",
"g.	c #251E20",
"h.	c #6D6668",
"i.	c #857F81",
"j.	c #3B3335",
"k.	c #463E40",
"l.	c #463D3F",
"m.	c #453E40",
"n.	c #463D40",
"o.	c #453D3F",
"p.	c #453D40",
"q.	c #3D3436",
"r.	c #665E61",
"s.	c #928C8E",
"t.	c #372F31",
"u.	c #C2C2C4",
"v.	c #FAFBFD",
"w.	c #F2F4F7",
"x.	c #ACAAAD",
"y.	c #362E30",
"z.	c #AEA9AC",
"A.	c #433B3D",
"B.	c #413A3C",
"C.	c #423A3C",
"D.	c #595254",
"E.	c #9A9697",
"F.	c #423B3C",
"G.	c #3A3133",
"H.	c #C3BFC1",
"I.	c #383133",
"J.	c #3B3638",
"K.	c #F1F3F7",
"L.	c #F0F3F5",
"M.	c #E9EAEE",
"N.	c #E8E9ED",
"O.	c #4D494C",
"P.	c #352D2E",
"Q.	c #8A8688",
"R.	c #3A3234",
"S.	c #3E3538",
"T.	c #3E3839",
"U.	c #3E3738",
"V.	c #3F3738",
"W.	c #3E3739",
"X.	c #3F3739",
"Y.	c #554F50",
"Z.	c #989495",
"`.	c #3B3436",
" +	c #878284",
".+	c #6D6769",
"++	c #E2E2E6",
"@+	c #E7E9ED",
"#+	c #DFE1E3",
"$+	c #E0E3E6",
"%+	c #110B0C",
"&+	c #474142",
"*+	c #757071",
"=+	c #383032",
"-+	c #3C3436",
";+	c #4F484B",
">+	c #8F8A8B",
",+	c #888283",
"'+	c #3B3435",
")+	c #797375",
"!+	c #160F11",
"~+	c #CFD0D3",
"{+	c #DFE1E4",
"]+	c #D6D7DA",
"^+	c #D4D6D8",
"/+	c #0A0405",
"(+	c #1D1619",
"_+	c #413B3C",
":+	c #382F31",
"<+	c #373031",
"[+	c #382F32",
"}+	c #343032",
"|+	c #911C1E",
"1+	c #9E191B",
"2+	c #7C1B1D",
"3+	c #BEBBBC",
"4+	c #DEDDDE",
"5+	c #806164",
"6+	c #4F2B2D",
"7+	c #4F2A2D",
"8+	c #502A2D",
"9+	c #4F2B2C",
"0+	c #502B2C",
"a+	c #492C2E",
"b+	c #373032",
"c+	c #332C2E",
"d+	c #0B0406",
"e+	c #C2C3C5",
"f+	c #CCCED0",
"g+	c #CBCCCF",
"h+	c #747071",
"i+	c #706D6E",
"j+	c #4C4749",
"k+	c #231B1E",
"l+	c #31292B",
"m+	c #352D2F",
"n+	c #342C2E",
"o+	c #332B2E",
"p+	c #312C2F",
"q+	c #B91011",
"r+	c #BC0F10",
"s+	c #A50405",
"t+	c #DFD9DA",
"u+	c #D8DADB",
"v+	c #8C1D1E",
"w+	c #991618",
"x+	c #981718",
"y+	c #981618",
"z+	c #991719",
"A+	c #8D1C1D",
"B+	c #2C2729",
"C+	c #463F41",
"D+	c #736F70",
"E+	c #130C0E",
"F+	c #B8B9BC",
"G+	c #CCCDD0",
"H+	c #C4C4C7",
"I+	c #C7C8CA",
"J+	c #0C0607",
"K+	c #262021",
"L+	c #726D6F",
"M+	c #070002",
"N+	c #0A0305",
"O+	c #140D0F",
"P+	c #251D20",
"Q+	c #2D2426",
"R+	c #2F2629",
"S+	c #30282A",
"T+	c #2D2628",
"U+	c #9B9899",
"V+	c #7D787A",
"W+	c #858081",
"X+	c #32292A",
"Y+	c #2E2628",
"Z+	c #2C2326",
"`+	c #221A1C",
" @	c #0F090A",
".@	c #0C0507",
"+@	c #676365",
"@@	c #B6B7B8",
"#@	c #C4C5C8",
"$@	c #BDBCBF",
"%@	c #BEBFC1",
"&@	c #353032",
"*@	c #060001",
"=@	c #888486",
"-@	c #040000",
";@	c #362F31",
">@	c #1F181A",
",@	c #4A4546",
"'@	c #160E10",
")@	c #120B0D",
"!@	c #0D0608",
"~@	c #080103",
"{@	c #6A6566",
"]@	c #383334",
"^@	c #B7B7B9",
"/@	c #BCBCBE",
"(@	c #B3B2B4",
"_@	c #B3B3B6",
":@	c #747173",
"<@	c #433E40",
"[@	c #241E20",
"}@	c #9C9A9B",
"|@	c #2B2527",
"1@	c #7E7B7C",
"2@	c #0A0205",
"3@	c #B6B5B7",
"4@	c #A9A9AC",
"5@	c #A4A4A8",
"6@	c #251D1F",
"7@	c #2F292B",
"8@	c #4E494A",
"9@	c #080002",
"0@	c #20191B",
"a@	c #433D3F",
"b@	c #322D2E",
"c@	c #332D2F",
"d@	c #747275",
"e@	c #A9A9AD",
"f@	c #A2A0A3",
"g@	c #A2A0A2",
"h@	c #3D3739",
"i@	c #2F282A",
"j@	c #262022",
"k@	c #827E7F",
"l@	c #080203",
"m@	c #0C0407",
"n@	c #7C7879",
"o@	c #3A3435",
"p@	c #393334",
"q@	c #A3A1A3",
"r@	c #A2A1A4",
"s@	c #9A989A",
"t@	c #898689",
"u@	c #564F51",
"v@	c #A7A4A5",
"w@	c #0E0608",
"x@	c #0F090B",
"y@	c #797576",
"z@	c #7A7576",
"A@	c #656164",
"B@	c #99979A",
"C@	c #9A989B",
"D@	c #908F91",
"E@	c #908F92",
"F@	c #665F61",
"G@	c #302629",
"H@	c #161011",
"I@	c #110A0C",
"J@	c #676364",
"K@	c #534B4C",
"L@	c #929093",
"M@	c #88868A",
"N@	c #888689",
"O@	c #98979A",
"P@	c #5D5859",
"Q@	c #453B3C",
"R@	c #473E40",
"S@	c #312A2C",
"T@	c #22191B",
"U@	c #413739",
"V@	c #918F91",
"W@	c #807D80",
"X@	c #959496",
"Y@	c #ABA8AA",
"Z@	c #60585A",
"`@	c #372F32",
" #	c #4C4445",
".#	c #7E7A7B",
"+#	c #000000",
"@#	c #777375",
"##	c #2B2427",
"$#	c #5A5355",
"%#	c #52494B",
"&#	c #979395",
"*#	c #7F7C7F",
"=#	c #7F7D80",
"-#	c #807E80",
";#	c #A7A5A7",
">#	c #BEBDBE",
",#	c #7B7576",
"'#	c #443B3D",
")#	c #645D5F",
"!#	c #7A7475",
"~#	c #676062",
"{#	c #21181A",
"]#	c #191113",
"^#	c #1D1617",
"/#	c #2E2729",
"(#	c #1F1718",
"_#	c #645D5E",
":#	c #868081",
"<#	c #5E5657",
"[#	c #A09C9E",
"}#	c #747274",
"|#	c #777477",
"1#	c #7E7B7D",
"2#	c #B9B6B8",
"3#	c #D0CFD1",
"4#	c #A6A3A4",
"5#	c #A5A1A3",
"6#	c #3C3335",
"7#	c #726B6D",
"8#	c #C7C4C5",
"9#	c #979193",
"0#	c #736B6D",
"a#	c #5F5759",
"b#	c #80797B",
"c#	c #736C6E",
"d#	c #9A9597",
"e#	c #999496",
"f#	c #756F71",
"g#	c #564D4F",
"h#	c #8C8788",
"i#	c #9B9A9C",
"j#	c #6C696B",
"k#	c #6D6B6D",
"l#	c #6C6A6B",
"m#	c #C5C4C6",
"n#	c #DDDBDD",
"o#	c #949192",
"p#	c #625A5C",
"q#	c #888284",
"r#	c #5D5457",
"s#	c #807A7B",
"t#	c #8D8789",
"u#	c #5C5356",
"v#	c #43393C",
"w#	c #4C4345",
"x#	c #CECDCE",
"y#	c #5F5B5E",
"z#	c #676466",
"A#	c #666265",
"B#	c #595456",
"C#	c #A6A4A6",
"D#	c #F5F3F5",
"E#	c #FCFBFC",
"F#	c #EAE9E9",
"G#	c #ECEBEC",
"H#	c #BCBABA",
"I#	c #5D5758",
"J#	c #615C5D",
"K#	c #736E70",
"L#	c #A4A1A2",
"M#	c #D4D4D6",
"N#	c #898688",
"O#	c #5E595B",
"P#	c #5F5A5C",
"Q#	c #5C585A",
"R#	c #908D8F",
"S#	c #D1D0D2",
"T#	c #C4C1C3",
"U#	c #AAA7A9",
"V#	c #969395",
"W#	c #828082",
"X#	c #6C686B",
"Y#	c #635F62",
"Z#	c #5A5659",
"`#	c #544F51",
" $	c #555153",
".$	c #565255",
"+$	c #4F4B4D",
"@$	c #5B5658",
"#$	c #666263",
"$$	c #605C5E",
"%$	c #585356",
"&$	c #4F494B",
"*$	c #4D4749",
"=$	c #494446",
"-$	c #4B4547",
"                          . . . . . . .                         ",
"                    . + . . . . @ . . . . . .                   ",
"                . . + # $ % & * = - ; > , + . + .               ",
"            . + . ' ) ! ~ { ] ^ / ( _ : < [ } . + .             ",
"          . + . | 1 2 3 4 5 6 7 8 9 0 a b c d e f . .           ",
"        . . g h i j k l m n o p q _ r s t u v w x y . .         ",
"      . + g z A t p B C D D _ _ E F G G H I J K L M N . .       ",
"      + . O _ A P Q R S T U T V W T T T S X U Y Z Z `  .. .     ",
"    . . ..+.@.#.$.X X %.X C %.&.*.X C X X X X X =.-.=.;.. +     ",
"  . . >.,.'.).!.~.~.~.{.{.{.{.W ].{.{.^.~.~.~.~./.s (._.:.. .   ",
"  . <.[.}.|.1.2.3.4.4.5.5.5.!.6.7.i !.5.i 4.8.5.9.0.a.b.c.+ d.  ",
"  e.f.g.h.i.j.k.l.m.m.n.o.o.n.Z 7.o.o.k.m.p.k.k.m.q.r.s.t.u.v.  ",
"  w.x.y.z.^.A.A.B.B.+.+.C.C.C.D.E.C.C.C.F.C.C.B.B.B.G.H.I.J.K.L.",
"M.N.O.P.Q.R.S.T.U.V.}.}.W.X.}.Y.Z.}.W.}.U.U.U.}.W.}.`. +.+= ++@+",
"#+$+%+&+*+=+j.j.j.j.j.j.j.-+j.;+>+,+R.j.j.j.j.'+j.j.j.U )+!+~+{+",
"]+^+/+(+_+}.=+:+=+<+[+}+|+1+2+3+4+5+6+7+8+9+0+8+a+b+`.^.c+d+e+]+",
"f+g+= h+i+j+k+l+m+n+o+p+q+r+s+t+u+v+w+w+x+y+y+z+A+B+C+D+D+E+F+G+",
"H+I+J+K+L+M+d+N+O+P+Q+R+S+T+U+V+W+l+l+X+S+Y+Z+`+ @N+.@< +@d+@@#@",
"$@%@&@*@=@-@.@.@.@.@d+d+N+U+;@>@,@'@)@!@d+d+d+.@.@.@~@{@]@d+^@/@",
"(@_@:@d+<@[@.@.@.@.@.@-@}@|@d+d+d+d+d+d+.@.@.@.@.@.@-@1@2@[ 3@(@",
"  4@5@6@7@8@9@.@.@.@.@0@a@d+.@.@.@.@.@.@.@.@.@.@.@*@b@c@!+d@e@4@",
"  f@g@h@i@j@k@l@m@.@.@d+d+.@.@.@.@.@.@.@.@.@.@.@N+n@o@p@c+q@r@  ",
"  s@s@t@u@v@w@d+.@.@.@.@.@.@.@.@.@.@.@.@.@.@.@.@d+x@y@z@A@B@C@  ",
"    D@E@F@G@ +H@d+.@.@.@.@.@.@.@.@.@.@.@.@.@.@d+I@J@K@i L@D@    ",
"    M@N@O@P@Q@R@S@N+N+.@.@.@.@.@.@.@.@.@.@N+d+I@T@C U@V@N@N@    ",
"      W@X@Y@Z@`@ #m..#+#d+.@.@.@.@.@.@d+-@@###$#%#l+&#*#=#      ",
"        -#;#>#,#'#)#!#~#{#]#M ^#/#O+'@(#G _#:#<#u@[#}#|#        ",
"          1#2#3#4#5#6#7#8#9#0#a#b#c#d#e#f#g#h#P i#j#k#          ",
"            l#m#n#. o#R@U@p#q#r#s#t#u#v#w#&.x#y#z#A#            ",
"              B#C#D#E#F#G#H#.#I#J#K#L#M#N#O#P#O#B#              ",
"                  Q#R#S#T#U#V#W#X#Y#Z#`# $.$+$                  ",
"                        @$#$$$%$&$*$=$-$                        "};
